<svg width="17" height="16" viewBox="0 0 17 16" fill="none" xmlns="http://www.w3.org/2000/svg">
<g clip-path="url(#clip0_2645_11862)">
<path d="M13.9792 9.2749V8.2489C13.9792 6.15471 12.7676 4.34378 11.0073 3.47803" stroke="#323B49" stroke-width="0.7" stroke-miterlimit="10" stroke-linejoin="round"/>
<path d="M6.32298 3.47803C4.56267 4.34378 3.35107 6.15471 3.35107 8.2489V9.2749" stroke="#323B49" stroke-width="0.7" stroke-miterlimit="10" stroke-linejoin="round"/>
<path d="M4.68929 12.0343H2.0131C1.39804 12.0343 0.899414 12.5329 0.899414 13.148V14.3175C0.899414 14.5811 1.1131 14.7948 1.3767 14.7948H5.72754V12.7452C5.56607 12.3293 5.16223 12.0343 4.68929 12.0343Z" stroke="#323B49" stroke-width="0.7" stroke-miterlimit="10" stroke-linejoin="round"/>
<path d="M9.58729 2.84985L8.4457 4.24823L7.74316 3.44623" stroke="#323B49" stroke-width="0.7" stroke-miterlimit="10" stroke-linecap="round" stroke-linejoin="round"/>
<path d="M8.17285 8.82178V9.00934" stroke="#323B49" stroke-width="0.7" stroke-miterlimit="10" stroke-linecap="square" stroke-linejoin="round"/>
<path d="M9.15723 8.82178V9.00934" stroke="#323B49" stroke-width="0.7" stroke-miterlimit="10" stroke-linecap="square" stroke-linejoin="round"/>
<path d="M8.17285 10.2108V10.3984" stroke="#323B49" stroke-width="0.7" stroke-miterlimit="10" stroke-linecap="square" stroke-linejoin="round"/>
<path d="M9.15723 10.2108V10.3984" stroke="#323B49" stroke-width="0.7" stroke-miterlimit="10" stroke-linecap="square" stroke-linejoin="round"/>
<path d="M8.17261 11.5985V13.3699" stroke="#323B49" stroke-width="0.7" stroke-miterlimit="10" stroke-linecap="square" stroke-linejoin="round"/>
<path d="M9.15747 11.5985V13.3699" stroke="#323B49" stroke-width="0.7" stroke-miterlimit="10" stroke-linecap="square" stroke-linejoin="round"/>
<path d="M6.62695 2.39156C6.43276 2.73296 6.32129 3.12753 6.32129 3.54834C6.32129 4.84275 7.37063 5.89209 8.66504 5.89209C9.95945 5.89209 11.0088 4.84275 11.0088 3.54834C11.0088 2.25393 9.95945 1.20459 8.66504 1.20459C8.18804 1.20459 7.74457 1.34746 7.37438 1.59221" stroke="#323B49" stroke-width="0.7" stroke-miterlimit="10" stroke-linecap="round" stroke-linejoin="round"/>
<path d="M10.1424 14.7953H7.18848V7.63428C7.18848 7.46168 7.32838 7.32178 7.50098 7.32178H9.82988C10.0025 7.32178 10.1424 7.46168 10.1424 7.63428V14.7953Z" stroke="#323B49" stroke-width="0.7" stroke-miterlimit="10" stroke-linejoin="round"/>
<path d="M5.72754 11.0932V14.7949H7.18807V8.4093H6.04004C5.86745 8.4093 5.72754 8.54921 5.72754 8.7218V9.99946" stroke="#323B49" stroke-width="0.7" stroke-miterlimit="10" stroke-linecap="round" stroke-linejoin="round"/>
<path d="M11.2896 8.4093H10.1416V14.7949H11.6021V8.7218C11.6021 8.54921 11.4622 8.4093 11.2896 8.4093Z" stroke="#323B49" stroke-width="0.7" stroke-miterlimit="10" stroke-linejoin="round"/>
<path d="M3.35144 12.0354C4.11373 12.0354 4.73169 11.4174 4.73169 10.6552C4.73169 9.89286 4.11373 9.2749 3.35144 9.2749C2.58915 9.2749 1.97119 9.89286 1.97119 10.6552C1.97119 11.4174 2.58915 12.0354 3.35144 12.0354Z" stroke="#323B49" stroke-width="0.7" stroke-miterlimit="10" stroke-linejoin="round"/>
<path d="M13.9796 12.0354C14.7419 12.0354 15.3599 11.4174 15.3599 10.6552C15.3599 9.89286 14.7419 9.2749 13.9796 9.2749C13.2173 9.2749 12.5994 9.89286 12.5994 10.6552C12.5994 11.4174 13.2173 12.0354 13.9796 12.0354Z" stroke="#323B49" stroke-width="0.7" stroke-miterlimit="10" stroke-linejoin="round"/>
<path d="M15.415 14.7948H15.9534C16.217 14.7948 16.4307 14.5811 16.4307 14.3175V13.148C16.4307 12.5329 15.932 12.0343 15.317 12.0343H12.6408C12.1678 12.0343 11.764 12.3293 11.6025 12.7452V14.7948H14.3213" stroke="#323B49" stroke-width="0.7" stroke-miterlimit="10" stroke-linecap="round" stroke-linejoin="round"/>
</g>
<defs>
<clipPath id="clip0_2645_11862">
<rect width="16" height="16" fill="white" transform="translate(0.665039)"/>
</clipPath>
</defs>
</svg>
